<svg width="40" height="40" viewBox="0 0 40 40" fill="none" xmlns="http://www.w3.org/2000/svg">
<g clip-path="url(#clip0_26_2)">
<path d="M22.4999 40.0782C21.7431 40.0782 20.9862 40.0782 20.1865 40.058C20.1193 40.0252 20.0951 40.0127 20.0651 39.964C20.0584 35.7224 20.0571 31.517 20.0582 27.3116C20.0583 27.1964 20.0848 27.0812 20.1331 26.9642C20.3982 26.9556 20.6292 26.9487 20.8929 26.9453C21.4145 26.951 21.9089 27.0026 22.3911 26.9475C24.9558 26.6539 26.9872 24.4724 27.0145 21.8741C27.0685 16.7208 27.0289 11.5664 27.0495 6.40773C27.0852 6.39869 27.0993 6.39444 27.1495 6.39453C30.7981 6.40012 34.4106 6.401 38.0232 6.40381C38.1777 6.40393 38.3323 6.4219 38.495 6.46568C38.4804 11.934 38.4781 17.3685 38.4167 22.8023C38.405 23.8398 38.2277 24.8892 38.0079 25.9074C37.6317 27.6506 36.9672 29.2968 36.0667 30.8415C34.9689 32.7248 33.6064 34.3817 31.9247 35.7811C30.6361 36.8534 29.2515 37.7537 27.7218 38.446C26.1039 39.1782 24.4261 39.6786 22.669 39.9235C22.6066 39.9322 22.556 40.0247 22.4999 40.0782Z" fill="#589CE0"/>
<path d="M36.9164 0.0781257C37.0188 0.156123 37.069 0.264838 37.1527 0.307393C38.0505 0.763384 38.4689 1.53399 38.4978 2.49546C38.5364 3.78053 38.505 5.06769 38.4953 6.39273C38.3323 6.42185 38.1777 6.40388 38.0231 6.40376C34.4106 6.40094 30.7981 6.40006 27.1477 6.35922C27.109 4.98469 27.1041 3.64976 27.109 2.31486C27.1117 1.60541 27.4405 1.05167 27.9826 0.619757C28.2271 0.425018 28.4935 0.257819 28.7499 0.078125C31.4598 0.0781253 34.1698 0.0781253 36.9164 0.0781257Z" fill="#E4E3EF"/>
<path d="M13.1666 0.078125C13.293 0.163016 13.3723 0.264284 13.4745 0.330138C14.1324 0.754348 14.6048 1.30065 14.6878 2.18338C14.6876 3.62886 14.6862 5.00542 14.6492 6.39008C14.2242 6.39952 13.8348 6.40171 13.4454 6.40201C10.0576 6.40457 6.66968 6.4068 3.28418 6.40236C3.28656 6.39559 3.29019 6.3817 3.28866 6.34673C3.31027 4.96641 3.31295 3.62028 3.36367 2.27597C3.39779 1.37155 3.88416 0.730909 4.67935 0.313716C4.79548 0.252786 4.8936 0.157509 5.00005 0.078125C7.71002 0.078125 10.42 0.078125 13.1666 0.078125Z" fill="#E4E4EF"/>
<path d="M17.6929 40.0783C17.5947 40.0266 17.5376 39.9372 17.4707 39.929C15.9592 39.7444 14.5039 39.3455 13.0976 38.7711C11.5428 38.136 10.0772 37.3268 8.76199 36.2852C7.32457 35.1469 6.04486 33.8474 4.98886 32.3311C3.85713 30.7061 2.97917 28.9664 2.40335 27.0713C2.05379 25.921 1.7945 24.7544 1.72023 23.5524C1.68202 22.9338 1.64484 22.3139 1.6442 21.6946C1.63897 16.6189 1.64246 11.5432 1.68448 6.43051C2.24717 6.38959 2.76869 6.38571 3.2902 6.38184C3.2902 6.38184 3.28657 6.39572 3.28391 6.43889C3.2813 11.6894 3.25465 16.8969 3.30136 22.1038C3.3122 23.3114 3.48772 24.5348 3.73698 25.7194C4.25961 28.2033 5.31725 30.469 6.81178 32.5243C7.75692 33.8241 8.87339 34.969 10.1146 35.9805C11.665 37.244 13.3867 38.226 15.2675 38.923C16.8209 39.4987 18.4216 39.8562 20.071 40.0002C20.0952 40.0128 20.1195 40.0253 20.15 40.058C19.3474 40.0783 18.5385 40.0783 17.6929 40.0783Z" fill="#E22B2B"/>
<path d="M28.7135 0.078125C28.4937 0.257819 28.2273 0.425018 27.9829 0.619757C27.4407 1.05167 27.1119 1.60541 27.1092 2.31486C27.1043 3.64976 27.1092 4.98469 27.1118 6.35487C27.0995 6.39438 27.0854 6.39863 27.0138 6.40161C26.4389 6.39815 25.9216 6.39597 25.4042 6.39379C25.4018 4.97743 25.3563 3.55937 25.4124 2.14533C25.4483 1.23952 26.0242 0.633579 26.8258 0.243695C26.8902 0.212355 26.9459 0.163008 26.9794 0.100077C27.5278 0.0781253 28.1023 0.0781253 28.7135 0.078125Z" fill="#C8C9DA"/>
<path d="M3.28864 6.34673C2.76865 6.38558 2.24713 6.38946 1.68987 6.3933C1.65192 4.97854 1.60662 3.5621 1.66302 2.14972C1.69923 1.24273 2.27518 0.635377 3.07781 0.244497C3.14202 0.213224 3.197 0.162992 3.22971 0.099848C3.7777 0.078125 4.35226 0.078125 4.96342 0.078125C4.89358 0.157509 4.79546 0.252786 4.67933 0.313716C3.88413 0.730909 3.39777 1.37155 3.36364 2.27597C3.31292 3.62028 3.31024 4.96641 3.28864 6.34673Z" fill="#CDC8D8"/>
<path d="M20.0652 39.964C18.4215 39.8562 16.8208 39.4986 15.2674 38.923C13.3867 38.226 11.6649 37.2439 10.1145 35.9805C8.87332 34.969 7.75685 33.8241 6.81171 32.5243C5.31718 30.469 4.25954 28.2032 3.73691 25.7194C3.48764 24.5347 3.31212 23.3114 3.30129 22.1038C3.25458 16.8969 3.28123 11.6893 3.28146 6.44562C6.66962 6.4069 10.0575 6.40467 13.4454 6.4021C13.8348 6.40181 14.2242 6.39961 14.6662 6.39387C14.7189 6.38943 14.7537 6.38867 14.7537 6.38867C14.7577 7.67634 14.7646 8.96402 14.7651 10.2517C14.7666 14.0764 14.7717 17.9011 14.7621 21.7257C14.7591 22.9138 15.1753 23.9457 15.8632 24.8812C16.7235 26.0512 17.9231 26.6747 19.3226 26.9443C19.5488 26.9878 19.7897 26.955 20.0614 26.9617C20.0849 27.0812 20.0583 27.1964 20.0583 27.3116C20.0572 31.517 20.0585 35.7224 20.0652 39.964Z" fill="#F94141"/>
<path d="M25.3987 6.43105C25.9215 6.39604 26.4389 6.39822 26.9921 6.40646C27.029 11.5664 27.0687 16.7208 27.0146 21.8741C26.9874 24.4724 24.9559 26.6539 22.3912 26.9475C21.909 27.0027 21.4146 26.951 20.8931 26.9453C21.495 26.6925 22.1663 26.5087 22.7572 26.1803C24.0977 25.4354 24.9003 24.2538 25.2249 22.763C25.328 22.2897 25.3825 21.7962 25.3837 21.3118C25.3958 16.364 25.3924 11.4161 25.3987 6.43105Z" fill="#367FBC"/>
<path d="M14.7579 6.35372C14.7539 6.3888 14.719 6.38956 14.7019 6.38588C14.6863 5.00564 14.6876 3.62909 14.6905 2.21533C14.7158 2.28379 14.7598 2.38938 14.7601 2.49512C14.7645 3.76961 14.7623 5.04413 14.7579 6.35372Z" fill="#CDC8D8"/>
</g>
<defs>
<clipPath id="clip0_26_2">
<rect width="40" height="40" fill="white"/>
</clipPath>
</defs>
</svg>
